<svg width="167" height="68" viewBox="0 0 167 68" fill="none" xmlns="http://www.w3.org/2000/svg">
<g filter="url(#filter0_d_22_27)">
<ellipse cx="30.5" cy="34" rx="26.5" ry="26" fill="#E0E0E0"/>
<path d="M20.2 18.6C20.7067 17.3733 21.4267 16.9333 22.36 17.28C22.6267 16.6933 22.8533 16.32 23.04 16.16C23.2533 16 23.4667 15.88 23.68 15.8C23.8933 15.6933 24.12 15.5867 24.36 15.48C24.6 15.3733 24.9733 15.28 25.48 15.2C25.9867 15.12 26.5467 15.08 27.16 15.08C27.7733 15.0533 28.3867 15.08 29 15.16C29.64 15.24 30.1733 15.4133 30.6 15.68C31.64 16.2933 31.8667 17.28 31.28 18.64C31.3333 18.6133 31.32 18.64 31.24 18.72L30.88 19.4L30.6 19.76C30.4667 19.8933 30.0533 20.7067 29.36 22.2C28.8 23.2667 28.2267 24.32 27.64 25.36C26.68 27.1467 26.0933 28.2933 25.88 28.8C26.8133 28.2933 27.8933 27.56 29.12 26.6C31.44 24.8133 32.92 23.7467 33.56 23.4C34.2 23.0533 34.64 22.84 34.88 22.76C35.1467 22.68 35.4 22.6667 35.64 22.72C35.88 22.7467 36.1333 22.8133 36.4 22.92L37.4 23.32C38.04 23.5333 38.3867 24.3067 38.44 25.64C38.4667 26.9467 38.2 27.9333 37.64 28.6C35.2133 31.7467 32.48 33.8533 29.44 34.92C28.5067 35.2667 27.5467 35.56 26.56 35.8C27.9733 35.96 29.32 36.8933 30.6 38.6C31.64 39.9867 32.3867 41.4133 32.84 42.88C33.32 44.3467 33.6933 45.44 33.96 46.16C34.2267 46.8533 34.3333 47.3867 34.28 47.76C34.2533 48.16 34.0267 48.4533 33.6 48.64C33.2 48.8533 32.5067 49.0533 31.52 49.24C31.0667 49.32 30.1333 48.7867 28.72 47.64C28.1067 47.1333 27.4533 46.5867 26.76 46C26.0667 45.3867 25.3733 44.8133 24.68 44.28C23.08 43.0267 21.96 42.3733 21.32 42.32C21.2667 42.32 21.16 42.2933 21 42.24L20.28 44.04C19.9067 44.92 19.52 45.8533 19.12 46.84C18.7467 47.8 18.2933 48.6667 17.76 49.44C16.9333 50 15.9733 50.2267 14.88 50.12C13.6267 49.9867 12.8 49.48 12.4 48.6C12.1333 47.7733 12.5733 45.3467 13.72 41.32C14.4933 38.4933 15.16 36.0133 15.72 33.88C16.28 31.7467 16.76 29.9867 17.16 28.6C17.56 27.1867 17.8533 26.0933 18.04 25.32C18.2267 24.52 18.4133 23.7467 18.6 23C19.0533 21.2667 19.5867 19.8 20.2 18.6ZM45.0041 29.24C45.1374 30.84 45.2574 32.4533 45.3641 34.08C45.4707 35.68 45.6307 37.28 45.8441 38.88C46.3241 37.8933 46.7641 36.8533 47.1641 35.76C47.5907 34.6667 48.0441 33.5867 48.5241 32.52C49.6707 30.0133 50.9374 28.1733 52.3241 27C53.1774 26.0667 54.4574 25.6 56.1641 25.6C57.1774 25.6 57.8174 25.92 58.0841 26.56C58.2174 26.88 58.1774 27.3067 57.9641 27.84C59.2707 28.7733 59.5507 29.8533 58.8041 31.08C58.5907 31.4 58.3774 31.6933 58.1641 31.96C57.0174 33.88 55.9641 35.6533 55.0041 37.28C53.4307 39.9733 52.0174 42.28 50.7641 44.2C50.3374 44.84 49.7374 45.56 48.9641 46.36C48.2174 47.1333 47.3907 47.8 46.4841 48.36C44.3507 49.7467 42.6574 50 41.4041 49.12C40.5774 49.0133 39.8041 48.7467 39.0841 48.32C38.3641 47.8933 37.8174 47.3333 37.4441 46.64C36.8841 45.1733 37.0174 41.8133 37.8441 36.56C38.0307 35.3867 38.1507 34.5067 38.2041 33.92C38.2574 33.3333 38.3241 32.8 38.4041 32.32C38.4841 31.84 38.5507 31.3867 38.6041 30.96C38.6574 30.5333 38.7107 30.1067 38.7641 29.68C38.8174 29.2267 38.9374 28.8133 39.1241 28.44C39.5774 27.5867 40.4041 27.12 41.6041 27.04H42.0841C42.5641 27.1467 43.0174 27.2667 43.4441 27.4C44.1641 27.6667 44.6441 28.1733 44.8841 28.92C44.9107 29 44.9507 29.1067 45.0041 29.24ZM63.1956 29.68C64.9823 28.96 66.1823 28.9467 66.7956 29.64C67.1156 30.0133 67.2756 30.5333 67.2756 31.2V31.4C68.2623 30.2533 69.9823 29.2933 72.4356 28.52C75.0223 27.72 77.1556 27.4933 78.8356 27.84C81.0223 28.2933 82.249 29.72 82.5156 32.12C82.729 34.1467 82.2623 36.72 81.1156 39.84C80.7423 40.64 80.449 41.2933 80.2356 41.8C80.049 42.28 79.8756 42.72 79.7156 43.12C79.369 43.8667 78.8223 44.76 78.0756 45.8C77.649 46.6 76.9823 47.2133 76.0756 47.64C75.1956 48.0667 74.3156 48.3067 73.4356 48.36C72.5823 48.44 71.8756 48.3067 71.3156 47.96C70.7556 47.64 70.5956 47.12 70.8356 46.4C71.449 44.7467 71.9556 43.24 72.3556 41.88C72.7556 40.52 73.169 39.36 73.5956 38.4C73.9956 37.04 74.049 36.1867 73.7556 35.84C73.5156 35.5733 73.1023 35.6133 72.5156 35.96C72.009 36.28 71.649 36.6533 71.4356 37.08C70.9556 37.4267 70.049 38.8133 68.7156 41.24C68.3423 41.9067 67.969 42.5733 67.5956 43.24C67.249 43.88 66.9156 44.48 66.5956 45.04C66.3023 45.6 66.0356 46.0667 65.7956 46.44C65.5823 46.8133 65.3823 47.0533 65.1956 47.16C65.0356 47.2933 64.889 47.3733 64.7556 47.4C64.649 47.4533 64.5556 47.5067 64.4756 47.56C64.3956 47.6133 64.329 47.7867 64.2756 48.08C64.169 48.6933 63.529 49.1467 62.3556 49.44C60.4623 49.92 58.7556 49.84 57.2356 49.2C56.729 48.9867 56.329 48.6933 56.0356 48.32C55.4223 47.0933 56.4756 42.92 59.1956 35.8C60.1556 33.2933 60.7823 31.8 61.0756 31.32C61.7423 30.3067 62.169 29.7333 62.3556 29.6C62.569 29.4667 62.849 29.4933 63.1956 29.68ZM90.7294 30.64C91.716 29.9733 92.8494 29.7733 94.1294 30.04C95.4094 30.3333 96.1294 30.8933 96.2894 31.72C96.5027 31.2133 96.6627 30.7067 96.7694 30.2C97.9694 24.7867 99.2894 20.6533 100.729 17.8C101.183 16.92 101.649 16.3067 102.129 15.96C103.383 15.16 104.703 15.0533 106.089 15.64C106.649 15.88 107.089 16.2133 107.409 16.64C107.729 17.04 107.849 17.4133 107.769 17.76C107.716 18.1067 107.743 18.3867 107.849 18.6C107.983 18.8133 108.129 19.0267 108.289 19.24C108.716 19.7467 108.889 20.1867 108.809 20.56C108.276 22.6667 107.556 24.8533 106.649 27.12C105.769 29.36 104.863 31.6 103.929 33.84C102.996 36.08 102.143 38.2933 101.369 40.48C100.623 42.64 100.129 44.6933 99.8894 46.64C99.8894 47.1467 99.676 47.6 99.2494 48C98.8227 48.4267 98.2894 48.76 97.6494 49C96.1294 49.5333 94.716 49.4267 93.4094 48.68V48.44C93.1427 48.36 92.9427 48.3067 92.8094 48.28C92.7027 48.2533 92.6227 48.2 92.5694 48.12C92.4894 47.9867 92.4227 47.5733 92.3694 46.88C91.836 47.7067 91.316 48.2133 90.8094 48.4C90.3027 48.5867 89.7827 48.68 89.2494 48.68C86.6627 48.68 84.8227 48.2133 83.7294 47.28C82.7694 46.48 82.316 45.1733 82.3694 43.36C82.4227 41.3333 83.1694 39.0667 84.6094 36.56C86.2627 33.7067 88.3027 31.7333 90.7294 30.64ZM90.6894 43.76C91.5427 44.0533 92.1294 43.8533 92.4494 43.16C92.636 42.8133 92.8094 42.36 92.9694 41.8C93.156 41.24 93.3827 40.5867 93.6494 39.84L93.8094 39.04C93.1694 38.6667 92.5827 38.6133 92.0494 38.88C91.5427 39.1467 91.1294 39.56 90.8094 40.12C90.4894 40.68 90.3027 41.3067 90.2494 42C90.196 42.6933 90.3427 43.28 90.6894 43.76ZM113.129 29.24C113.262 30.84 113.382 32.4533 113.489 34.08C113.596 35.68 113.756 37.28 113.969 38.88C114.449 37.8933 114.889 36.8533 115.289 35.76C115.716 34.6667 116.169 33.5867 116.649 32.52C117.796 30.0133 119.062 28.1733 120.449 27C121.302 26.0667 122.582 25.6 124.289 25.6C125.302 25.6 125.942 25.92 126.209 26.56C126.342 26.88 126.302 27.3067 126.089 27.84C127.396 28.7733 127.676 29.8533 126.929 31.08C126.716 31.4 126.502 31.6933 126.289 31.96C125.142 33.88 124.089 35.6533 123.129 37.28C121.556 39.9733 120.142 42.28 118.889 44.2C118.462 44.84 117.862 45.56 117.089 46.36C116.342 47.1333 115.516 47.8 114.609 48.36C112.476 49.7467 110.782 50 109.529 49.12C108.702 49.0133 107.929 48.7467 107.209 48.32C106.489 47.8933 105.942 47.3333 105.569 46.64C105.009 45.1733 105.142 41.8133 105.969 36.56C106.156 35.3867 106.276 34.5067 106.329 33.92C106.382 33.3333 106.449 32.8 106.529 32.32C106.609 31.84 106.676 31.3867 106.729 30.96C106.782 30.5333 106.836 30.1067 106.889 29.68C106.942 29.2267 107.062 28.8133 107.249 28.44C107.702 27.5867 108.529 27.12 109.729 27.04H110.209C110.689 27.1467 111.142 27.2667 111.569 27.4C112.289 27.6667 112.769 28.1733 113.009 28.92C113.036 29 113.076 29.1067 113.129 29.24ZM133.121 48.52C132.801 49.16 132.321 49.72 131.681 50.2C131.067 50.7067 130.441 51.0533 129.801 51.24C129.187 51.4533 128.774 51.56 128.561 51.56C128.347 51.56 127.801 51.4933 126.921 51.36H126.881C126.854 51.36 126.814 51.3333 126.761 51.28C125.374 50.64 124.681 49.7733 124.681 48.68C124.681 47.72 125.174 46.76 126.161 45.8C127.494 44.52 128.934 43.9333 130.481 44.04C130.667 44.0667 131.107 44.1733 131.801 44.36C131.881 44.44 131.934 44.48 131.961 44.48C133.481 45.6533 133.867 47 133.121 48.52Z" fill="#C5A880"/>
</g>
<defs>
<filter id="filter0_d_22_27" x="0" y="0" width="171" height="70" filterUnits="userSpaceOnUse" color-interpolation-filters="sRGB">
<feFlood flood-opacity="0" result="BackgroundImageFix"/>
<feColorMatrix in="SourceAlpha" type="matrix" values="0 0 0 0 0 0 0 0 0 0 0 0 0 0 0 0 0 0 127 0" result="hardAlpha"/>
<feOffset dy="4"/>
<feGaussianBlur stdDeviation="2"/>
<feComposite in2="hardAlpha" operator="out"/>
<feColorMatrix type="matrix" values="0 0 0 0 0 0 0 0 0 0 0 0 0 0 0 0 0 0 0.25 0"/>
<feBlend mode="normal" in2="BackgroundImageFix" result="effect1_dropShadow_22_27"/>
<feBlend mode="normal" in="SourceGraphic" in2="effect1_dropShadow_22_27" result="shape"/>
</filter>
</defs>
</svg>
